<svg width="800" height="400" viewBox="0 0 800 400" xmlns="http://www.w3.org/2000/svg"><defs><pattern id="satori_pattern_id_0" x="0" y="0" width="1" height="1" patternUnits="objectBoundingBox"><linearGradient id="satori_biid_0" x1="-0.10000000000000007" y1="0.20000000000000054" x2="1.1" y2="0.7999999999999994" spreadMethod="pad"><stop offset="0%" stop-color="#000000"/><stop offset="100%" stop-color="#0f172a"/></linearGradient><rect x="0" y="0" width="800" height="400" fill="url(#satori_biid_0)"/></pattern></defs><mask id="satori_om-id"><rect x="0" y="0" width="800" height="400" fill="#fff"/></mask><rect x="0" y="0" width="800" height="400" fill="url(#satori_pattern_id_0)"/><mask id="satori_om-id-0"><rect x="340" y="63" width="120" height="120" fill="#fff"/></mask><path x="340" y="63" width="120" height="120" fill="#0EA5E9" d="M400,63 h0 a60,60 0 0 1 60,60 v0 a60,60 0 0 1 -60,60 h0 a60,60 0 0 1 -60,-60 v0 a60,60 0 0 1 60,-60"/><mask id="satori_om-id-0-0"><rect x="380" y="92" width="40" height="63" fill="#fff"/></mask><g  ><path fill="#000" d="M416.7 117.4L416.7 117.4L408.6 117.4Q408.3 115.9 407.7 114.6Q407.0 113.4 405.9 112.5Q404.8 111.7 403.4 111.2Q402.0 110.7 400.4 110.7L400.4 110.7Q397.5 110.7 395.3 112.2Q393.1 113.6 391.9 116.4Q390.7 119.2 390.7 123.1L390.7 123.1Q390.7 127.1 391.9 129.9Q393.1 132.6 395.3 134.0Q397.5 135.4 400.4 135.4L400.4 135.4Q402.0 135.4 403.4 135.0Q404.7 134.6 405.8 133.8Q406.9 133.0 407.6 131.8Q408.3 130.6 408.6 129.1L408.6 129.1L416.7 129.1Q416.3 131.7 415.1 134.1Q413.8 136.5 411.8 138.4Q409.7 140.3 406.8 141.4Q403.9 142.5 400.2 142.5L400.2 142.5Q395.2 142.5 391.2 140.2Q387.2 137.9 384.9 133.6Q382.6 129.3 382.6 123.1L382.6 123.1Q382.6 116.9 384.9 112.6Q387.3 108.2 391.3 105.9Q395.3 103.7 400.2 103.7L400.2 103.7Q403.5 103.7 406.3 104.6Q409.2 105.5 411.3 107.3Q413.5 109.0 414.9 111.6Q416.3 114.1 416.7 117.4Z "/></g><mask id="satori_om-id-1"><rect x="264" y="215" width="272" height="68" fill="#fff"/></mask><g  ><path fill="#ffffff" d="M303.5 242.5L303.5 242.5L294.8 242.5Q294.5 240.8 293.8 239.5Q293.1 238.2 291.9 237.3Q290.7 236.3 289.2 235.8Q287.7 235.3 286.0 235.3L286.0 235.3Q282.8 235.3 280.5 236.9Q278.1 238.5 276.8 241.4Q275.6 244.4 275.6 248.6L275.6 248.6Q275.6 253.0 276.9 256.0Q278.2 258.9 280.5 260.4Q282.9 261.9 285.9 261.9L285.9 261.9Q287.7 261.9 289.1 261.5Q290.6 261.0 291.8 260.1Q292.9 259.3 293.7 258.0Q294.5 256.7 294.8 255.1L294.8 255.1L303.5 255.1Q303.1 257.9 301.8 260.5Q300.5 263.1 298.2 265.2Q295.9 267.2 292.8 268.4Q289.7 269.6 285.8 269.6L285.8 269.6Q280.3 269.6 276.1 267.1Q271.8 264.6 269.3 260.0Q266.8 255.3 266.8 248.6L266.8 248.6Q266.8 242.0 269.3 237.3Q271.8 232.6 276.1 230.2Q280.4 227.7 285.8 227.7L285.8 227.7Q289.3 227.7 292.4 228.7Q295.4 229.7 297.7 231.6Q300.1 233.5 301.6 236.2Q303.1 239.0 303.5 242.5ZM322.3 269.6L322.3 269.6Q317.6 269.6 314.2 267.7Q310.8 265.8 309.0 262.2Q307.1 258.7 307.1 253.9L307.1 253.9Q307.1 249.2 309.0 245.6Q310.8 242.0 314.1 240.0Q317.5 238.1 322.0 238.1L322.0 238.1Q325.0 238.1 327.6 239.0Q330.2 240.0 332.2 241.9Q334.1 243.8 335.2 246.8Q336.3 249.7 336.3 253.6L336.3 253.6L336.3 255.9L310.5 255.9L310.5 250.6L328.3 250.6Q328.3 248.8 327.6 247.4Q326.8 246.0 325.4 245.2Q324.0 244.4 322.1 244.4L322.1 244.4Q320.2 244.4 318.7 245.3Q317.2 246.2 316.4 247.6Q315.5 249.1 315.5 250.9L315.5 250.9L315.5 255.9Q315.5 258.2 316.4 259.8Q317.2 261.5 318.8 262.4Q320.3 263.3 322.4 263.3L322.4 263.3Q323.9 263.3 325.0 262.9Q326.2 262.5 327.0 261.7Q327.9 260.9 328.3 259.7L328.3 259.7L336.1 260.3Q335.5 263.1 333.7 265.2Q331.9 267.3 329.0 268.4Q326.1 269.6 322.3 269.6ZM349.2 251.3L349.2 251.3L349.2 269L340.7 269L340.7 238.5L348.8 238.5L348.8 243.8L349.2 243.8Q350.2 241.2 352.6 239.6Q354.9 238.1 358.3 238.1L358.3 238.1Q361.5 238.1 363.9 239.4Q366.3 240.8 367.6 243.4Q368.9 246.0 368.9 249.6L368.9 249.6L368.9 269L360.4 269L360.4 251.1Q360.4 248.3 359.0 246.7Q357.5 245.1 355.0 245.1L355.0 245.1Q353.3 245.1 352.0 245.8Q350.7 246.6 349.9 248.0Q349.2 249.4 349.2 251.3ZM372.3 238.5L390.7 238.5L390.7 244.8L372.3 244.8L372.3 238.5ZM376.5 260.7L376.5 231.1L384.9 231.1L384.9 259.6Q384.9 260.8 385.3 261.4Q385.6 262.1 386.3 262.3Q386.9 262.6 387.8 262.6L387.8 262.6Q388.4 262.6 389.0 262.5Q389.6 262.4 389.9 262.3L389.9 262.3L391.2 268.6Q390.6 268.8 389.4 269.1Q388.3 269.4 386.6 269.4L386.6 269.4Q383.6 269.5 381.3 268.6Q379.0 267.7 377.7 265.7Q376.4 263.7 376.5 260.7L376.5 260.7ZM408.7 269.6L408.7 269.6Q404.0 269.6 400.6 267.7Q397.2 265.8 395.3 262.2Q393.5 258.7 393.5 253.9L393.5 253.9Q393.5 249.2 395.3 245.6Q397.2 242.0 400.5 240.0Q403.8 238.1 408.3 238.1L408.3 238.1Q411.4 238.1 414.0 239.0Q416.6 240.0 418.5 241.9Q420.5 243.8 421.6 246.8Q422.7 249.7 422.7 253.6L422.7 253.6L422.7 255.9L396.9 255.9L396.9 250.6L414.7 250.6Q414.7 248.8 413.9 247.4Q413.1 246.0 411.7 245.2Q410.3 244.4 408.5 244.4L408.5 244.4Q406.5 244.4 405.1 245.3Q403.6 246.2 402.7 247.6Q401.9 249.1 401.9 250.9L401.9 250.9L401.9 255.9Q401.9 258.2 402.7 259.8Q403.6 261.5 405.1 262.4Q406.7 263.3 408.8 263.3L408.8 263.3Q410.2 263.3 411.4 262.9Q412.6 262.5 413.4 261.7Q414.2 260.9 414.7 259.7L414.7 259.7L422.5 260.3Q421.9 263.1 420.1 265.2Q418.2 267.3 415.3 268.4Q412.4 269.6 408.7 269.6ZM435.6 251.3L435.6 251.3L435.6 269L427.1 269L427.1 238.5L435.2 238.5L435.2 243.8L435.5 243.8Q436.5 241.2 438.9 239.6Q441.3 238.1 444.7 238.1L444.7 238.1Q447.9 238.1 450.3 239.4Q452.6 240.8 453.9 243.4Q455.3 246.0 455.3 249.6L455.3 249.6L455.3 269L446.8 269L446.8 251.1Q446.8 248.3 445.4 246.7Q443.9 245.1 441.4 245.1L441.4 245.1Q439.6 245.1 438.3 245.8Q437.0 246.6 436.3 248.0Q435.6 249.4 435.6 251.3ZM469.3 269L460.8 269L460.8 238.5L469.3 238.5L469.3 269ZM465.1 234.5L465.1 234.5Q463.2 234.5 461.8 233.3Q460.5 232.0 460.5 230.2L460.5 230.2Q460.5 228.5 461.8 227.2Q463.2 225.9 465.1 225.9L465.1 225.9Q466.9 225.9 468.3 227.2Q469.6 228.5 469.6 230.2L469.6 230.2Q469.6 232.0 468.3 233.3Q466.9 234.5 465.1 234.5ZM500.4 269L474.8 269L474.8 263.9L489.7 245.4L489.7 245.2L475.3 245.2L475.3 238.5L499.9 238.5L499.9 244.0L485.9 262.0L485.9 262.2L500.4 262.2L500.4 269ZM518.9 269.6L518.9 269.6Q514.1 269.6 510.7 267.7Q507.4 265.8 505.5 262.2Q503.7 258.7 503.7 253.9L503.7 253.9Q503.7 249.2 505.5 245.6Q507.4 242.0 510.7 240.0Q514.0 238.1 518.5 238.1L518.5 238.1Q521.5 238.1 524.2 239.0Q526.8 240.0 528.7 241.9Q530.7 243.8 531.8 246.8Q532.9 249.7 532.9 253.6L532.9 253.6L532.9 255.9L507.1 255.9L507.1 250.6L524.9 250.6Q524.9 248.8 524.1 247.4Q523.3 246.0 521.9 245.2Q520.5 244.4 518.7 244.4L518.7 244.4Q516.7 244.4 515.2 245.3Q513.8 246.2 512.9 247.6Q512.1 249.1 512.1 250.9L512.1 250.9L512.1 255.9Q512.1 258.2 512.9 259.8Q513.8 261.5 515.3 262.4Q516.9 263.3 519.0 263.3L519.0 263.3Q520.4 263.3 521.6 262.9Q522.8 262.5 523.6 261.7Q524.4 260.9 524.9 259.7L524.9 259.7L532.7 260.3Q532.1 263.1 530.3 265.2Q528.4 267.3 525.5 268.4Q522.6 269.6 518.9 269.6Z "/></g><mask id="satori_om-id-2"><rect x="90" y="299" width="620" height="39" fill="#fff"/></mask><g opacity="0.8"></g><g  ><path fill="#ffffff" d="M99.8 329L92.5 329L92.5 308.6L99.6 308.6Q101.7 308.6 103.1 309.4Q104.5 310.1 105.2 311.3Q105.8 312.6 105.8 314.0L105.8 314.0Q105.8 315.4 105.4 316.2Q104.9 317.1 104.2 317.6Q103.4 318.1 102.5 318.3L102.5 318.3L102.5 318.5Q103.5 318.6 104.4 319.2Q105.4 319.8 106.0 320.9Q106.6 322.0 106.6 323.6L106.6 323.6Q106.6 325.1 105.9 326.3Q105.2 327.6 103.7 328.3Q102.2 329 99.8 329L99.8 329ZM94.9 319.7L94.9 326.8L99.8 326.8Q102.2 326.8 103.3 325.9Q104.3 324.9 104.3 323.6L104.3 323.6Q104.3 322.6 103.8 321.7Q103.2 320.8 102.3 320.3Q101.3 319.7 99.9 319.7L99.9 319.7L94.9 319.7ZM94.9 310.8L94.9 317.6L99.5 317.6Q100.6 317.6 101.5 317.1Q102.4 316.7 103.0 315.9Q103.5 315.1 103.5 314.0L103.5 314.0Q103.5 312.7 102.5 311.8Q101.6 310.8 99.6 310.8L99.6 310.8L94.9 310.8ZM110.4 308.6L112.7 308.6L112.7 329L110.4 329L110.4 308.6ZM123.2 329.3L123.2 329.3Q121.1 329.3 119.6 328.3Q118.0 327.3 117.2 325.6Q116.3 323.8 116.3 321.4L116.3 321.4Q116.3 319.1 117.2 317.3Q118.0 315.5 119.6 314.5Q121.1 313.5 123.2 313.5L123.2 313.5Q125.3 313.5 126.8 314.5Q128.4 315.5 129.3 317.3Q130.1 319.1 130.1 321.4L130.1 321.4Q130.1 323.8 129.3 325.6Q128.4 327.3 126.8 328.3Q125.3 329.3 123.2 329.3ZM123.2 327.2L123.2 327.2Q124.8 327.2 125.8 326.4Q126.8 325.6 127.3 324.3Q127.8 323.0 127.8 321.4L127.8 321.4Q127.8 319.9 127.3 318.6Q126.8 317.3 125.8 316.5Q124.8 315.6 123.2 315.6L123.2 315.6Q121.6 315.6 120.6 316.5Q119.6 317.3 119.1 318.6Q118.6 319.9 118.6 321.4L118.6 321.4Q118.6 323.0 119.1 324.3Q119.6 325.6 120.6 326.4Q121.6 327.2 123.2 327.2ZM139.9 329.3L139.9 329.3Q137.8 329.3 136.2 328.3Q134.7 327.3 133.8 325.5Q133.0 323.7 133.0 321.4L133.0 321.4Q133.0 319.1 133.9 317.3Q134.7 315.5 136.3 314.5Q137.8 313.5 139.9 313.5L139.9 313.5Q141.5 313.5 142.8 314.1Q144.1 314.7 144.9 315.8Q145.7 316.9 145.9 318.3L145.9 318.3L143.6 318.3Q143.3 317.3 142.4 316.4Q141.5 315.6 139.9 315.6L139.9 315.6Q138.5 315.6 137.5 316.3Q136.5 317.1 135.9 318.3Q135.3 319.6 135.3 321.4L135.3 321.4Q135.3 323.1 135.9 324.4Q136.5 325.8 137.5 326.5Q138.5 327.2 139.9 327.2L139.9 327.2Q140.8 327.2 141.6 326.9Q142.3 326.6 142.8 326.0Q143.4 325.4 143.6 324.5L143.6 324.5L145.9 324.5Q145.7 325.9 144.9 327.0Q144.2 328.1 142.9 328.7Q141.6 329.3 139.9 329.3ZM154.2 320.9L151.5 323.4L151.5 320.5L152.0 320.5L158.6 313.7L161.6 313.7L154.4 320.9L154.2 320.9ZM151.7 329L149.3 329L149.3 308.6L151.7 308.6L151.7 329ZM162.0 329L159.0 329L153.1 321.4L154.8 319.8L162.0 329ZM170.1 329.3L170.1 329.3Q168.0 329.3 166.4 328.3Q164.9 327.3 164.1 325.5Q163.2 323.7 163.2 321.4L163.2 321.4Q163.2 319.1 164.1 317.3Q164.9 315.5 166.5 314.5Q168.0 313.5 170.1 313.5L170.1 313.5Q171.7 313.5 173.0 314.1Q174.3 314.7 175.1 315.8Q175.9 316.9 176.1 318.3L176.1 318.3L173.8 318.3Q173.5 317.3 172.6 316.4Q171.7 315.6 170.1 315.6L170.1 315.6Q168.8 315.6 167.7 316.3Q166.7 317.1 166.1 318.3Q165.6 319.6 165.6 321.4L165.6 321.4Q165.6 323.1 166.1 324.4Q166.7 325.8 167.7 326.5Q168.8 327.2 170.1 327.2L170.1 327.2Q171.1 327.2 171.8 326.9Q172.5 326.6 173.1 326.0Q173.6 325.4 173.8 324.5L173.8 324.5L176.1 324.5Q175.9 325.9 175.2 327.0Q174.4 328.1 173.1 328.7Q171.8 329.3 170.1 329.3ZM181.9 319.8L181.9 319.8L181.9 329L179.6 329L179.6 308.6L181.9 308.6L181.9 316.1L182.1 316.1Q182.7 314.9 183.7 314.2Q184.8 313.5 186.6 313.5L186.6 313.5Q188.2 313.5 189.3 314.1Q190.5 314.8 191.2 316.0Q191.8 317.3 191.8 319.3L191.8 319.3L191.8 329L189.5 329L189.5 319.5Q189.5 317.6 188.5 316.6Q187.6 315.6 185.9 315.6L185.9 315.6Q184.8 315.6 183.9 316.1Q183.0 316.6 182.4 317.5Q181.9 318.5 181.9 319.8ZM200.6 329.4L200.6 329.4Q199.2 329.4 198.0 328.8Q196.8 328.3 196.1 327.2Q195.4 326.2 195.4 324.7L195.4 324.7Q195.4 323.4 195.9 322.5Q196.4 321.7 197.3 321.2Q198.2 320.8 199.2 320.5Q200.3 320.3 201.3 320.2L201.3 320.2Q202.7 320.0 203.6 319.9Q204.5 319.8 204.9 319.6Q205.3 319.3 205.3 318.8L205.3 318.8L205.3 318.7Q205.3 317.2 204.5 316.4Q203.7 315.6 202.0 315.6L202.0 315.6Q200.4 315.6 199.4 316.3Q198.5 317.1 198.1 317.9L198.1 317.9L195.8 317.1Q196.4 315.7 197.4 314.9Q198.4 314.2 199.6 313.8Q200.8 313.5 202.0 313.5L202.0 313.5Q202.7 313.5 203.7 313.7Q204.6 313.9 205.5 314.4Q206.4 315.0 207.0 316.0Q207.6 317.1 207.6 318.9L207.6 318.9L207.6 329L205.3 329L205.3 326.9L205.1 326.9Q204.9 327.4 204.3 328.0Q203.8 328.6 202.9 329.0Q201.9 329.4 200.6 329.4ZM201.0 327.3L201.0 327.3Q202.4 327.3 203.3 326.7Q204.3 326.2 204.8 325.3Q205.3 324.4 205.3 323.5L205.3 323.5L205.3 321.3Q205.1 321.5 204.6 321.6Q204.1 321.8 203.5 321.9Q202.8 322 202.2 322.1Q201.6 322.1 201.2 322.2L201.2 322.2Q200.3 322.3 199.5 322.6Q198.7 322.8 198.2 323.4Q197.7 323.9 197.7 324.8L197.7 324.8Q197.7 326.0 198.7 326.6Q199.6 327.3 201.0 327.3ZM214.2 329L211.9 329L211.9 313.7L214.2 313.7L214.2 329ZM213.1 311.2L213.1 311.2Q212.4 311.2 211.9 310.7Q211.4 310.2 211.4 309.6L211.4 309.6Q211.4 308.9 211.9 308.5Q212.4 308 213.1 308L213.1 308Q213.8 308 214.3 308.5Q214.8 308.9 214.8 309.6L214.8 309.6Q214.8 310.2 214.3 310.7Q213.8 311.2 213.1 311.2ZM220.9 319.8L220.9 319.8L220.9 329L218.5 329L218.5 313.7L220.8 313.7L220.8 316.1L221.0 316.1Q221.5 315.0 222.6 314.2Q223.7 313.5 225.5 313.5L225.5 313.5Q227.0 313.5 228.2 314.2Q229.3 314.8 230.0 316.1Q230.6 317.3 230.6 319.3L230.6 319.3L230.6 329L228.3 329L228.3 319.5Q228.3 317.7 227.4 316.6Q226.4 315.6 224.8 315.6L224.8 315.6Q223.7 315.6 222.8 316.1Q221.9 316.6 221.4 317.5Q220.9 318.5 220.9 319.8Z M256.2 329L243.8 329L243.8 308.6L256.1 308.6L256.1 310.8L246.2 310.8L246.2 317.7L255.4 317.7L255.4 319.9L246.2 319.9L246.2 326.8L256.2 326.8L256.2 329ZM266.0 329.3L266.0 329.3Q264.0 329.3 262.6 328.3Q261.1 327.4 260.3 325.6Q259.5 323.8 259.5 321.4L259.5 321.4Q259.5 319.0 260.3 317.2Q261.1 315.5 262.6 314.5Q264.1 313.5 266.0 313.5L266.0 313.5Q267.5 313.5 268.4 314.0Q269.2 314.5 269.7 315.1Q270.2 315.8 270.4 316.2L270.4 316.2L270.6 316.2L270.6 308.6L273.0 308.6L273.0 329L270.7 329L270.7 326.7L270.4 326.7Q270.2 327.1 269.7 327.7Q269.2 328.3 268.3 328.8Q267.4 329.3 266.0 329.3ZM266.3 327.2L266.3 327.2Q267.7 327.2 268.7 326.5Q269.6 325.7 270.1 324.4Q270.6 323.1 270.6 321.4L270.6 321.4Q270.6 319.7 270.2 318.4Q269.7 317.1 268.7 316.4Q267.7 315.6 266.3 315.6L266.3 315.6Q264.8 315.6 263.8 316.4Q262.8 317.2 262.3 318.5Q261.8 319.8 261.8 321.4L261.8 321.4Q261.8 323.0 262.3 324.3Q262.8 325.6 263.8 326.4Q264.8 327.2 266.3 327.2ZM287.2 322.8L287.2 322.8L287.2 313.7L289.5 313.7L289.5 329L287.2 329L287.2 326.4L287.0 326.4Q286.5 327.6 285.4 328.4Q284.2 329.2 282.5 329.2L282.5 329.2Q281.1 329.2 280.0 328.6Q278.8 327.9 278.2 326.7Q277.6 325.4 277.6 323.4L277.6 323.4L277.6 313.7L279.9 313.7L279.9 323.3Q279.9 324.9 280.9 325.9Q281.8 326.9 283.3 326.9L283.3 326.9Q284.1 326.9 285.0 326.5Q286.0 326.0 286.6 325.1Q287.2 324.2 287.2 322.8ZM300.0 329.3L300.0 329.3Q297.9 329.3 296.3 328.3Q294.8 327.3 294.0 325.5Q293.1 323.7 293.1 321.4L293.1 321.4Q293.1 319.1 294.0 317.3Q294.8 315.5 296.4 314.5Q297.9 313.5 300.0 313.5L300.0 313.5Q301.6 313.5 302.9 314.1Q304.2 314.7 305.0 315.8Q305.8 316.9 306.0 318.3L306.0 318.3L303.7 318.3Q303.4 317.3 302.5 316.4Q301.6 315.6 300.0 315.6L300.0 315.6Q298.7 315.6 297.6 316.3Q296.6 317.1 296.0 318.3Q295.5 319.6 295.5 321.4L295.5 321.4Q295.5 323.1 296.0 324.4Q296.6 325.8 297.6 326.5Q298.6 327.2 300.0 327.2L300.0 327.2Q301.0 327.2 301.7 326.9Q302.4 326.6 303.0 326.0Q303.5 325.4 303.7 324.5L303.7 324.5L306.0 324.5Q305.8 325.9 305.1 327.0Q304.3 328.1 303.0 328.7Q301.7 329.3 300.0 329.3ZM314.0 329.4L314.0 329.4Q312.5 329.4 311.3 328.8Q310.1 328.3 309.4 327.2Q308.7 326.2 308.7 324.7L308.7 324.7Q308.7 323.4 309.3 322.5Q309.8 321.7 310.6 321.2Q311.5 320.8 312.6 320.5Q313.6 320.3 314.7 320.2L314.7 320.2Q316.1 320.0 316.9 319.9Q317.8 319.8 318.2 319.6Q318.6 319.3 318.6 318.8L318.6 318.8L318.6 318.7Q318.6 317.2 317.8 316.4Q317.0 315.6 315.4 315.6L315.4 315.6Q313.7 315.6 312.8 316.3Q311.8 317.1 311.4 317.9L311.4 317.9L309.2 317.1Q309.8 315.7 310.8 314.9Q311.8 314.2 313.0 313.8Q314.2 313.5 315.3 313.5L315.3 313.5Q316.0 313.5 317.0 313.7Q318.0 313.9 318.9 314.4Q319.8 315.0 320.4 316.0Q321.0 317.1 321.0 318.9L321.0 318.9L321.0 329L318.6 329L318.6 326.9L318.5 326.9Q318.3 327.4 317.7 328.0Q317.1 328.6 316.2 329.0Q315.3 329.4 314.0 329.4ZM314.3 327.3L314.3 327.3Q315.7 327.3 316.7 326.7Q317.6 326.2 318.1 325.3Q318.6 324.4 318.6 323.5L318.6 323.5L318.6 321.3Q318.5 321.5 318.0 321.6Q317.5 321.8 316.8 321.9Q316.2 322 315.5 322.1Q314.9 322.1 314.6 322.2L314.6 322.2Q313.6 322.3 312.9 322.6Q312.1 322.8 311.6 323.4Q311.1 323.9 311.1 324.8L311.1 324.8Q311.1 326.0 312.0 326.6Q312.9 327.3 314.3 327.3ZM324.0 313.7L331.9 313.7L331.9 315.7L324.0 315.7L324.0 313.7ZM326.3 325.3L326.3 310.1L328.6 310.1L328.6 324.6Q328.6 325.6 328.9 326.1Q329.2 326.6 329.7 326.8Q330.1 326.9 330.7 326.9L330.7 326.9Q331.1 326.9 331.3 326.9Q331.5 326.8 331.7 326.8L331.7 326.8L332.2 328.9Q331.9 329.0 331.5 329.1Q331.1 329.2 330.4 329.2L330.4 329.2Q329.4 329.2 328.5 328.8Q327.5 328.3 326.9 327.5Q326.3 326.6 326.3 325.3L326.3 325.3ZM337.8 329L335.4 329L335.4 313.7L337.8 313.7L337.8 329ZM336.6 311.2L336.6 311.2Q335.9 311.2 335.5 310.7Q335.0 310.2 335.0 309.6L335.0 309.6Q335.0 308.9 335.5 308.5Q335.9 308 336.6 308L336.6 308Q337.3 308 337.8 308.5Q338.3 308.9 338.3 309.6L338.3 309.6Q338.3 310.2 337.8 310.7Q337.3 311.2 336.6 311.2ZM348.3 329.3L348.3 329.3Q346.2 329.3 344.7 328.3Q343.1 327.3 342.2 325.6Q341.4 323.8 341.4 321.4L341.4 321.4Q341.4 319.1 342.2 317.3Q343.1 315.5 344.7 314.5Q346.2 313.5 348.3 313.5L348.3 313.5Q350.4 313.5 351.9 314.5Q353.5 315.5 354.3 317.3Q355.2 319.1 355.2 321.4L355.2 321.4Q355.2 323.8 354.3 325.6Q353.5 327.3 351.9 328.3Q350.4 329.3 348.3 329.3ZM348.3 327.2L348.3 327.2Q349.9 327.2 350.9 326.4Q351.9 325.6 352.4 324.3Q352.9 323.0 352.9 321.4L352.9 321.4Q352.9 319.9 352.4 318.6Q351.9 317.3 350.9 316.5Q349.9 315.6 348.3 315.6L348.3 315.6Q346.7 315.6 345.7 316.5Q344.7 317.3 344.2 318.6Q343.7 319.9 343.7 321.4L343.7 321.4Q343.7 323.0 344.2 324.3Q344.7 325.6 345.7 326.4Q346.7 327.2 348.3 327.2ZM361.1 319.8L361.1 319.8L361.1 329L358.8 329L358.8 313.7L361.1 313.7L361.1 316.1L361.2 316.1Q361.8 315.0 362.9 314.2Q364.0 313.5 365.7 313.5L365.7 313.5Q367.3 313.5 368.4 314.2Q369.6 314.8 370.2 316.1Q370.9 317.3 370.9 319.3L370.9 319.3L370.9 329L368.5 329L368.5 319.5Q368.5 317.7 367.6 316.6Q366.7 315.6 365.0 315.6L365.0 315.6Q363.9 315.6 363.0 316.1Q362.1 316.6 361.6 317.5Q361.1 318.5 361.1 319.8Z M388.8 329.3L388.8 329.3Q386.8 329.3 385.4 328.5Q383.9 327.8 383.1 326.5Q382.3 325.2 382.3 323.6L382.3 323.6Q382.3 322.3 382.9 321.3Q383.4 320.3 384.4 319.5Q385.3 318.6 386.6 317.8L386.6 317.8L389.5 315.6Q390.4 315.0 390.9 314.4Q391.4 313.7 391.4 312.7L391.4 312.7Q391.4 311.9 390.8 311.2Q390.1 310.5 389.0 310.5L389.0 310.5Q388.2 310.5 387.6 310.9Q387.0 311.3 386.7 311.9Q386.3 312.5 386.3 313.1L386.3 313.1Q386.3 313.8 386.7 314.5Q387.1 315.3 387.7 316.0Q388.4 316.8 389.0 317.6L389.0 317.6L398.4 329L395.5 329L387.8 319.7Q386.7 318.4 385.9 317.3Q385.0 316.3 384.5 315.3Q384.0 314.2 384.0 313.1L384.0 313.1Q384.0 311.7 384.6 310.6Q385.2 309.6 386.3 309.0Q387.4 308.4 388.9 308.4L388.9 308.4Q390.4 308.4 391.5 309.0Q392.6 309.6 393.2 310.6Q393.8 311.6 393.8 312.7L393.8 312.7Q393.8 314.2 393.1 315.2Q392.4 316.3 391.1 317.2L391.1 317.2L387.1 320.3Q385.7 321.3 385.2 322.2Q384.7 323.2 384.7 323.6L384.7 323.6Q384.7 324.5 385.2 325.4Q385.7 326.2 386.6 326.7Q387.5 327.2 388.7 327.2L388.7 327.2Q389.9 327.2 391.0 326.7Q392.1 326.2 393.0 325.3Q393.9 324.4 394.4 323.0Q394.9 321.7 394.9 320.1L394.9 320.1L397.2 320.1Q397.2 322.1 396.7 323.4Q396.2 324.7 395.6 325.4Q395.1 326.1 394.7 326.5L394.7 326.5Q394.6 326.6 394.5 326.8Q394.4 326.9 394.3 327.1L394.3 327.1Q393.3 328.2 391.8 328.7Q390.3 329.3 388.8 329.3Z M422.7 313.7L420.3 313.7Q420.1 312.2 418.8 311.4Q417.5 310.5 415.7 310.5L415.7 310.5Q414.3 310.5 413.3 311.0Q412.3 311.4 411.8 312.2Q411.2 313.0 411.2 313.9L411.2 313.9Q411.2 314.7 411.6 315.3Q412.0 315.9 412.6 316.3Q413.2 316.7 413.9 316.9Q414.6 317.2 415.1 317.3L415.1 317.3L417.2 317.9Q418.0 318.1 419.0 318.4Q420.0 318.8 420.9 319.4Q421.8 320.1 422.4 321.1Q422.9 322.0 422.9 323.5L422.9 323.5Q422.9 325.1 422.1 326.5Q421.2 327.8 419.6 328.6Q417.9 329.4 415.6 329.4L415.6 329.4Q413.4 329.4 411.8 328.7Q410.2 327.9 409.3 326.7Q408.4 325.4 408.3 323.8L408.3 323.8L410.8 323.8Q410.9 324.9 411.6 325.7Q412.3 326.4 413.3 326.8Q414.4 327.1 415.6 327.1L415.6 327.1Q417.0 327.1 418.1 326.7Q419.2 326.2 419.9 325.4Q420.6 324.5 420.6 323.4L420.6 323.4Q420.6 322.4 420.0 321.8Q419.4 321.1 418.5 320.7Q417.6 320.3 416.5 320.1L416.5 320.1L414.0 319.3Q411.6 318.6 410.2 317.4Q408.8 316.1 408.8 314.0L408.8 314.0Q408.8 312.3 409.7 311.1Q410.7 309.8 412.3 309.1Q413.8 308.4 415.8 308.4L415.8 308.4Q417.7 308.4 419.3 309.1Q420.8 309.8 421.7 311.0Q422.6 312.2 422.7 313.7L422.7 313.7ZM432.9 329.3L432.9 329.3Q430.8 329.3 429.3 328.3Q427.7 327.3 426.8 325.6Q426.0 323.8 426.0 321.4L426.0 321.4Q426.0 319.1 426.8 317.3Q427.7 315.5 429.3 314.5Q430.8 313.5 432.9 313.5L432.9 313.5Q434.9 313.5 436.5 314.5Q438.1 315.5 438.9 317.3Q439.8 319.1 439.8 321.4L439.8 321.4Q439.8 323.8 438.9 325.6Q438.1 327.3 436.5 328.3Q434.9 329.3 432.9 329.3ZM432.9 327.2L432.9 327.2Q434.5 327.2 435.5 326.4Q436.5 325.6 437.0 324.3Q437.5 323.0 437.5 321.4L437.5 321.4Q437.5 319.9 437.0 318.6Q436.5 317.3 435.5 316.5Q434.5 315.6 432.9 315.6L432.9 315.6Q431.3 315.6 430.3 316.5Q429.3 317.3 428.8 318.6Q428.3 319.9 428.3 321.4L428.3 321.4Q428.3 323.0 428.8 324.3Q429.3 325.6 430.3 326.4Q431.3 327.2 432.9 327.2ZM453.0 322.8L453.0 322.8L453.0 313.7L455.4 313.7L455.4 329L453.0 329L453.0 326.4L452.8 326.4Q452.3 327.6 451.2 328.4Q450.0 329.2 448.3 329.2L448.3 329.2Q446.9 329.2 445.8 328.6Q444.7 327.9 444.0 326.7Q443.4 325.4 443.4 323.4L443.4 323.4L443.4 313.7L445.7 313.7L445.7 323.3Q445.7 324.9 446.7 325.9Q447.6 326.9 449.1 326.9L449.1 326.9Q449.9 326.9 450.9 326.5Q451.8 326.0 452.4 325.1Q453.0 324.2 453.0 322.8ZM459.6 308.6L462.0 308.6L462.0 329L459.6 329L459.6 308.6ZM468.9 329L466.6 329L466.6 308.6L469.0 308.6L469.0 316.2L469.2 316.2Q469.4 315.8 469.9 315.1Q470.3 314.5 471.2 314.0Q472.1 313.5 473.6 313.5L473.6 313.5Q475.5 313.5 477.0 314.5Q478.4 315.5 479.3 317.2Q480.1 319.0 480.1 321.4L480.1 321.4Q480.1 323.8 479.3 325.6Q478.4 327.4 477.0 328.3Q475.5 329.3 473.6 329.3L473.6 329.3Q472.1 329.3 471.3 328.8Q470.4 328.3 469.9 327.7Q469.4 327.1 469.2 326.7L469.2 326.7L468.9 326.7L468.9 329ZM468.9 321.4L468.9 321.4Q468.9 323.1 469.4 324.4Q469.9 325.7 470.9 326.5Q471.9 327.2 473.3 327.2L473.3 327.2Q474.8 327.2 475.8 326.4Q476.7 325.6 477.2 324.3Q477.7 323.0 477.7 321.4L477.7 321.4Q477.7 319.8 477.3 318.5Q476.8 317.2 475.8 316.4Q474.8 315.6 473.3 315.6L473.3 315.6Q471.9 315.6 470.9 316.4Q469.9 317.1 469.4 318.4Q468.9 319.7 468.9 321.4ZM489.9 329.3L489.9 329.3Q487.8 329.3 486.3 328.3Q484.7 327.3 483.8 325.6Q483.0 323.8 483.0 321.4L483.0 321.4Q483.0 319.1 483.8 317.3Q484.7 315.5 486.3 314.5Q487.8 313.5 489.9 313.5L489.9 313.5Q491.9 313.5 493.5 314.5Q495.1 315.5 495.9 317.3Q496.8 319.1 496.8 321.4L496.8 321.4Q496.8 323.8 495.9 325.6Q495.1 327.3 493.5 328.3Q491.9 329.3 489.9 329.3ZM489.9 327.2L489.9 327.2Q491.4 327.2 492.5 326.4Q493.5 325.6 494.0 324.3Q494.4 323.0 494.4 321.4L494.4 321.4Q494.4 319.9 494.0 318.6Q493.5 317.3 492.5 316.5Q491.4 315.6 489.9 315.6L489.9 315.6Q488.3 315.6 487.3 316.5Q486.3 317.3 485.8 318.6Q485.3 319.9 485.3 321.4L485.3 321.4Q485.3 323.0 485.8 324.3Q486.3 325.6 487.3 326.4Q488.3 327.2 489.9 327.2ZM510.0 322.8L510.0 322.8L510.0 313.7L512.3 313.7L512.3 329L510.0 329L510.0 326.4L509.8 326.4Q509.3 327.6 508.2 328.4Q507.0 329.2 505.3 329.2L505.3 329.2Q503.9 329.2 502.8 328.6Q501.6 327.9 501.0 326.7Q500.4 325.4 500.4 323.4L500.4 323.4L500.4 313.7L502.7 313.7L502.7 323.3Q502.7 324.9 503.7 325.9Q504.6 326.9 506.1 326.9L506.1 326.9Q506.9 326.9 507.8 326.5Q508.8 326.0 509.4 325.1Q510.0 324.2 510.0 322.8ZM519.0 319.8L519.0 319.8L519.0 329L516.6 329L516.6 313.7L518.9 313.7L518.9 316.1L519.1 316.1Q519.6 315.0 520.7 314.2Q521.8 313.5 523.6 313.5L523.6 313.5Q525.1 313.5 526.3 314.2Q527.4 314.8 528.1 316.1Q528.7 317.3 528.7 319.3L528.7 319.3L528.7 329L526.4 329L526.4 319.5Q526.4 317.7 525.5 316.6Q524.5 315.6 522.9 315.6L522.9 315.6Q521.8 315.6 520.9 316.1Q520.0 316.6 519.5 317.5Q519.0 318.5 519.0 319.8ZM538.8 329.3L538.8 329.3Q536.9 329.3 535.4 328.3Q534.0 327.4 533.1 325.6Q532.3 323.8 532.3 321.4L532.3 321.4Q532.3 319.0 533.1 317.2Q534.0 315.5 535.4 314.5Q536.9 313.5 538.8 313.5L538.8 313.5Q540.3 313.5 541.2 314.0Q542.1 314.5 542.5 315.1Q543.0 315.8 543.2 316.2L543.2 316.2L543.4 316.2L543.4 308.6L545.8 308.6L545.8 329L543.5 329L543.5 326.7L543.2 326.7Q543.0 327.1 542.5 327.7Q542.0 328.3 541.2 328.8Q540.3 329.3 538.8 329.3ZM539.1 327.2L539.1 327.2Q540.5 327.2 541.5 326.5Q542.5 325.7 543.0 324.4Q543.5 323.1 543.5 321.4L543.5 321.4Q543.5 319.7 543.0 318.4Q542.5 317.1 541.5 316.4Q540.5 315.6 539.1 315.6L539.1 315.6Q537.6 315.6 536.6 316.4Q535.6 317.2 535.2 318.5Q534.7 319.8 534.7 321.4L534.7 321.4Q534.7 323.0 535.2 324.3Q535.7 325.6 536.7 326.4Q537.6 327.2 539.1 327.2Z M575.0 315L575.0 315L572.5 315Q572.3 313.9 571.8 313.1Q571.2 312.3 570.4 311.8Q569.7 311.2 568.7 310.9Q567.8 310.7 566.8 310.7L566.8 310.7Q564.9 310.7 563.4 311.6Q562.0 312.5 561.1 314.4Q560.2 316.2 560.2 318.8L560.2 318.8Q560.2 321.5 561.1 323.3Q562.0 325.1 563.4 326.0Q564.9 327.0 566.8 327.0L566.8 327.0Q567.8 327.0 568.7 326.7Q569.7 326.4 570.4 325.9Q571.2 325.3 571.8 324.5Q572.3 323.7 572.5 322.6L572.5 322.6L575.0 322.6Q574.7 324.2 574.0 325.4Q573.2 326.7 572.1 327.5Q571.1 328.4 569.7 328.8Q568.3 329.3 566.8 329.3L566.8 329.3Q564.2 329.3 562.2 328.0Q560.1 326.7 559.0 324.4Q557.8 322.0 557.8 318.8L557.8 318.8Q557.8 315.6 559.0 313.3Q560.1 310.9 562.2 309.6Q564.2 308.4 566.8 308.4L566.8 308.4Q568.3 308.4 569.7 308.8Q571.1 309.3 572.1 310.1Q573.2 311.0 574.0 312.2Q574.7 313.4 575.0 315ZM585.1 329.3L585.1 329.3Q582.8 329.3 581.2 328.3Q579.7 327.4 578.8 325.6Q577.9 323.8 577.9 321.5L577.9 321.5Q577.9 319.1 578.8 317.3Q579.7 315.5 581.2 314.5Q582.7 313.5 584.8 313.5L584.8 313.5Q586.0 313.5 587.2 313.9Q588.3 314.3 589.3 315.2Q590.2 316.1 590.8 317.6Q591.4 319.0 591.4 321.2L591.4 321.2L591.4 322.2L579.6 322.2L579.6 320.1L589.0 320.1Q589.0 318.8 588.5 317.8Q588.0 316.8 587.0 316.2Q586.1 315.6 584.8 315.6L584.8 315.6Q583.4 315.6 582.4 316.3Q581.4 317.0 580.8 318.1Q580.3 319.2 580.3 320.5L580.3 320.5L580.3 321.8Q580.3 323.6 580.9 324.8Q581.5 326.0 582.6 326.6Q583.6 327.2 585.1 327.2L585.1 327.2Q586.0 327.2 586.7 326.9Q587.5 326.7 588.0 326.2Q588.6 325.6 588.9 324.8L588.9 324.8L591.1 325.5Q590.8 326.6 589.9 327.5Q589.1 328.4 587.8 328.8Q586.6 329.3 585.1 329.3ZM597.3 329L595.0 329L595.0 313.7L597.2 313.7L597.2 316.0L597.4 316.0Q597.8 314.9 598.9 314.2Q600.0 313.5 601.4 313.5L601.4 313.5Q601.6 313.5 602.0 313.5Q602.4 313.5 602.6 313.5L602.6 313.5L602.6 315.9Q602.5 315.9 602.0 315.8Q601.6 315.8 601.2 315.8L601.2 315.8Q600.0 315.8 599.2 316.2Q598.3 316.7 597.8 317.5Q597.3 318.3 597.3 319.3L597.3 319.3L597.3 329ZM605.1 313.7L613.0 313.7L613.0 315.7L605.1 315.7L605.1 313.7ZM607.4 325.3L607.4 310.1L609.7 310.1L609.7 324.6Q609.7 325.6 610.0 326.1Q610.3 326.6 610.8 326.8Q611.2 326.9 611.7 326.9L611.7 326.9Q612.1 326.9 612.4 326.9Q612.6 326.8 612.8 326.8L612.8 326.8L613.2 328.9Q613.0 329.0 612.6 329.1Q612.2 329.2 611.5 329.2L611.5 329.2Q610.5 329.2 609.6 328.8Q608.6 328.3 608.0 327.5Q607.4 326.6 607.4 325.3L607.4 325.3ZM618.9 329L616.5 329L616.5 313.7L618.9 313.7L618.9 329ZM617.7 311.2L617.7 311.2Q617.0 311.2 616.5 310.7Q616.0 310.2 616.0 309.6L616.0 309.6Q616.0 308.9 616.5 308.5Q617.0 308 617.7 308L617.7 308Q618.4 308 618.9 308.5Q619.4 308.9 619.4 309.6L619.4 309.6Q619.4 310.2 618.9 310.7Q618.4 311.2 617.7 311.2ZM621.7 313.7L630.0 313.7L630.0 315.7L621.7 315.7L621.7 313.7ZM626.5 329L624.2 329L624.2 311.6Q624.2 310.3 624.8 309.4Q625.4 308.6 626.4 308.1Q627.4 307.7 628.5 307.7L628.5 307.7Q629.3 307.7 629.9 307.8Q630.4 308.0 630.7 308.1L630.7 308.1L630.0 310.1Q629.9 310.0 629.5 310.0Q629.2 309.9 628.7 309.9L628.7 309.9Q627.6 309.9 627.0 310.5Q626.5 311.0 626.5 312.2L626.5 312.2L626.5 329ZM635.6 329L633.3 329L633.3 313.7L635.6 313.7L635.6 329ZM634.4 311.2L634.4 311.2Q633.8 311.2 633.3 310.7Q632.8 310.2 632.8 309.6L632.8 309.6Q632.8 308.9 633.3 308.5Q633.8 308 634.4 308L634.4 308Q635.1 308 635.6 308.5Q636.1 308.9 636.1 309.6L636.1 309.6Q636.1 310.2 635.6 310.7Q635.1 311.2 634.4 311.2ZM646.1 329.3L646.1 329.3Q644.0 329.3 642.4 328.3Q640.9 327.3 640.0 325.5Q639.2 323.7 639.2 321.4L639.2 321.4Q639.2 319.1 640.0 317.3Q640.9 315.5 642.4 314.5Q644.0 313.5 646.1 313.5L646.1 313.5Q647.7 313.5 649.0 314.1Q650.3 314.7 651.1 315.8Q651.9 316.9 652.1 318.3L652.1 318.3L649.8 318.3Q649.5 317.3 648.6 316.4Q647.7 315.6 646.1 315.6L646.1 315.6Q644.7 315.6 643.7 316.3Q642.7 317.1 642.1 318.3Q641.5 319.6 641.5 321.4L641.5 321.4Q641.5 323.1 642.1 324.4Q642.7 325.8 643.7 326.5Q644.7 327.2 646.1 327.2L646.1 327.2Q647.0 327.2 647.8 326.9Q648.5 326.6 649.0 326.0Q649.5 325.4 649.8 324.5L649.8 324.5L652.1 324.5Q651.9 325.9 651.1 327.0Q650.3 328.1 649.1 328.7Q647.8 329.3 646.1 329.3ZM660.0 329.4L660.0 329.4Q658.6 329.4 657.4 328.8Q656.2 328.3 655.5 327.2Q654.8 326.2 654.8 324.7L654.8 324.7Q654.8 323.4 655.3 322.5Q655.8 321.7 656.7 321.2Q657.6 320.8 658.6 320.5Q659.7 320.3 660.7 320.2L660.7 320.2Q662.1 320.0 663.0 319.9Q663.9 319.8 664.3 319.6Q664.7 319.3 664.7 318.8L664.7 318.8L664.7 318.7Q664.7 317.2 663.9 316.4Q663.1 315.6 661.5 315.6L661.5 315.6Q659.8 315.6 658.8 316.3Q657.9 317.1 657.5 317.9L657.5 317.9L655.2 317.1Q655.8 315.7 656.8 314.9Q657.8 314.2 659.0 313.8Q660.2 313.5 661.4 313.5L661.4 313.5Q662.1 313.5 663.1 313.7Q664.0 313.9 664.9 314.4Q665.8 315.0 666.4 316.0Q667.0 317.1 667.0 318.9L667.0 318.9L667.0 329L664.7 329L664.7 326.9L664.6 326.9Q664.3 327.4 663.8 328.0Q663.2 328.6 662.3 329.0Q661.4 329.4 660.0 329.4ZM660.4 327.3L660.4 327.3Q661.8 327.3 662.7 326.7Q663.7 326.2 664.2 325.3Q664.7 324.4 664.7 323.5L664.7 323.5L664.7 321.3Q664.5 321.5 664.0 321.6Q663.5 321.8 662.9 321.9Q662.2 322 661.6 322.1Q661.0 322.1 660.6 322.2L660.6 322.2Q659.7 322.3 658.9 322.6Q658.1 322.8 657.6 323.4Q657.2 323.9 657.2 324.8L657.2 324.8Q657.2 326.0 658.1 326.6Q659.0 327.3 660.4 327.3ZM670.0 313.7L678.0 313.7L678.0 315.7L670.0 315.7L670.0 313.7ZM672.4 325.3L672.4 310.1L674.7 310.1L674.7 324.6Q674.7 325.6 675.0 326.1Q675.3 326.6 675.7 326.8Q676.2 326.9 676.7 326.9L676.7 326.9Q677.1 326.9 677.4 326.9Q677.6 326.8 677.8 326.8L677.8 326.8L678.2 328.9Q678 329.0 677.6 329.1Q677.1 329.2 676.5 329.2L676.5 329.2Q675.5 329.2 674.5 328.8Q673.6 328.3 673.0 327.5Q672.4 326.6 672.4 325.3L672.4 325.3ZM687.7 329.3L687.7 329.3Q685.5 329.3 683.9 328.3Q682.3 327.4 681.5 325.6Q680.6 323.8 680.6 321.5L680.6 321.5Q680.6 319.1 681.5 317.3Q682.3 315.5 683.9 314.5Q685.4 313.5 687.5 313.5L687.5 313.5Q688.7 313.5 689.9 313.9Q691.0 314.3 692.0 315.2Q692.9 316.1 693.5 317.6Q694.1 319.0 694.1 321.2L694.1 321.2L694.1 322.2L682.3 322.2L682.3 320.1L691.7 320.1Q691.7 318.8 691.2 317.8Q690.7 316.8 689.7 316.2Q688.8 315.6 687.5 315.6L687.5 315.6Q686.1 315.6 685.1 316.3Q684.1 317.0 683.5 318.1Q683.0 319.2 683.0 320.5L683.0 320.5L683.0 321.8Q683.0 323.6 683.6 324.8Q684.2 326.0 685.2 326.6Q686.3 327.2 687.7 327.2L687.7 327.2Q688.7 327.2 689.4 326.9Q690.2 326.7 690.7 326.2Q691.3 325.6 691.6 324.8L691.6 324.8L693.8 325.5Q693.5 326.6 692.6 327.5Q691.8 328.4 690.5 328.8Q689.3 329.3 687.7 329.3ZM708.5 317.1L708.5 317.1L706.4 317.7Q706.2 317.2 705.8 316.7Q705.4 316.2 704.7 315.9Q704.1 315.6 703.1 315.6L703.1 315.6Q701.7 315.6 700.7 316.2Q699.8 316.8 699.8 317.8L699.8 317.8Q699.8 318.7 700.4 319.2Q701.1 319.7 702.4 320.1L702.4 320.1L704.7 320.6Q706.7 321.1 707.7 322.1Q708.7 323.1 708.7 324.7L708.7 324.7Q708.7 326.1 708.0 327.1Q707.2 328.1 705.9 328.7Q704.6 329.3 702.8 329.3L702.8 329.3Q700.4 329.3 698.9 328.3Q697.4 327.3 697.0 325.3L697.0 325.3L699.2 324.8Q699.5 326.0 700.4 326.6Q701.3 327.3 702.7 327.3L702.7 327.3Q704.4 327.3 705.3 326.5Q706.3 325.8 706.3 324.9L706.3 324.9Q706.3 324.1 705.8 323.5Q705.2 323.0 704.1 322.7L704.1 322.7L701.5 322.1Q699.4 321.6 698.4 320.6Q697.4 319.5 697.4 317.9L697.4 317.9Q697.4 316.7 698.2 315.7Q698.9 314.7 700.2 314.1Q701.4 313.5 703.1 313.5L703.1 313.5Q705.3 313.5 706.6 314.5Q707.9 315.5 708.5 317.1Z " opacity="0.8"/></g></svg>